# xmcd CD database file
#
# Track frame offsets:
#	150
#	23864
#	42655
#	68270
#	88745
#	116668
#	148923
#
# Disc length: 2705 seconds
#
# Revision: 2
# Processed by: cddbd v1.4b41PL1 Copyright (c) Steve Scherf et al.
# Submitted via: Feurio! 1.50.2ß - http://www.feurio.com
#
DISCID=5f0a8f07
DTITLE=Van Morrison - Live auf der Loreley, 9.Juli.1999, CD 2
DYEAR=1900
DGENRE=
TTITLE0=Muleskinner Blues
TTITLE1=Prescious Time
TTITLE2=Just like a Woman
TTITLE3=Satisfied
TTITLE4=When the Leaves come falling down
TTITLE5=Healing Game
TTITLE6=Help Me
EXTD=
EXTT0=
EXTT1=
EXTT2=
EXTT3=
EXTT4=
EXTT5=
EXTT6=
PLAYORDER=
